<svg width="82" height="76" viewBox="0 0 82 76" fill="none" xmlns="http://www.w3.org/2000/svg">
<rect y="0.984619" width="81.9767" height="75" rx="4.36047" fill="white"/>
<path d="M20.1666 26.4845C20.1666 26.4845 23.2916 22.3179 30.5833 22.3179C37.875 22.3179 41 26.4845 41 26.4845V55.6512C41 55.6512 37.875 53.5679 30.5833 53.5679C23.2916 53.5679 20.1666 55.6512 20.1666 55.6512V26.4845ZM41 26.4845C41 26.4845 44.125 22.3179 51.4166 22.3179C58.7083 22.3179 61.8333 26.4845 61.8333 26.4845V55.6512C61.8333 55.6512 58.7083 53.5679 51.4166 53.5679C44.125 53.5679 41 55.6512 41 55.6512V26.4845Z" stroke="#FF630B" stroke-width="1.5" stroke-linecap="round" stroke-linejoin="round"/>
</svg>
