<svg width="20" height="21" viewBox="0 0 20 21" fill="none" xmlns="http://www.w3.org/2000/svg">
<path d="M18.0273 6.03908C17.7655 5.4329 17.3881 4.88359 16.916 4.42189C16.4436 3.95881 15.8866 3.59082 15.2754 3.3379C14.6416 3.07461 13.9617 2.93984 13.2754 2.94142C12.3125 2.94142 11.373 3.20509 10.5566 3.70314C10.3613 3.82228 10.1758 3.95314 10 4.09572C9.82422 3.95314 9.63867 3.82228 9.44336 3.70314C8.62695 3.20509 7.6875 2.94142 6.72461 2.94142C6.03125 2.94142 5.35938 3.07423 4.72461 3.3379C4.11133 3.59181 3.55859 3.95705 3.08398 4.42189C2.61132 4.88306 2.23375 5.43251 1.97266 6.03908C1.70117 6.66994 1.5625 7.33986 1.5625 8.02931C1.5625 8.6797 1.69531 9.35744 1.95898 10.0469C2.17969 10.6231 2.49609 11.2207 2.90039 11.8242C3.54102 12.7793 4.42188 13.7754 5.51562 14.7852C7.32812 16.459 9.12305 17.6152 9.19922 17.6621L9.66211 17.959C9.86719 18.0899 10.1309 18.0899 10.3359 17.959L10.7988 17.6621C10.875 17.6133 12.668 16.459 14.4824 14.7852C15.5762 13.7754 16.457 12.7793 17.0977 11.8242C17.502 11.2207 17.8203 10.6231 18.0391 10.0469C18.3027 9.35744 18.4355 8.6797 18.4355 8.02931C18.4375 7.33986 18.2988 6.66994 18.0273 6.03908Z" fill="#FF7D34"/>
</svg>
