<svg width="16" height="16" viewBox="0 0 16 16" fill="none" xmlns="http://www.w3.org/2000/svg">
<path d="M7.0314 1.15256C7.24878 0.478513 8.20244 0.478515 8.41982 1.15256L9.73449 5.229C9.83185 5.53087 10.1131 5.73523 10.4303 5.73454L14.7135 5.72517C15.4217 5.72363 15.7164 6.63061 15.1425 7.04564L11.6719 9.55566C11.4148 9.74154 11.3074 10.0722 11.4061 10.3736L12.7386 14.4443C12.9589 15.1174 12.1874 15.6779 11.6153 15.2604L8.15564 12.7352C7.89944 12.5482 7.55177 12.5482 7.29558 12.7352L3.83591 15.2604C3.26385 15.6779 2.49233 15.1174 2.71265 14.4443L4.04514 10.3736C4.14381 10.0722 4.03637 9.74153 3.77936 9.55566L0.308687 7.04564C-0.265193 6.63061 0.029505 5.72363 0.737736 5.72517L5.02092 5.73454C5.3381 5.73523 5.61937 5.53087 5.71673 5.229L7.0314 1.15256Z" fill="#FDB244"/>
</svg>
