<svg width="75" height="86" viewBox="0 0 75 86" fill="none" xmlns="http://www.w3.org/2000/svg">
<rect width="70" height="70" rx="5" fill="#BB6BD9"/>
<path d="M66 57.1L73.5 64.5L40.2 80.4C40.2 80.4 35.8 82.4 33.7 79.2C25.5 66.4 66 57.1 66 57.1Z" fill="#547725"/>
<path d="M39.4 71.1C39.4 71.1 33 73.3 34.2 77.6C35.4 82 40.5 79.3 40.5 79.3L72.1 64.6C72.1 64.6 70.3 59.9 73.5 56.8L39.4 71.1Z" fill="#D9E3E8"/>
<path d="M44.7 27L75 56.5L39.2 70.5L16.2 34.7L44.7 27Z" fill="#83BF4F"/>
<path d="M45.6 33.7L51.4 39.9L29.7 47.7L24.6 39.8L45.6 33.7Z" fill="white"/>
<path d="M72 60L50.9 68.6L71.7 59.1L72 60ZM71.7 62.6L49.2 71.9L71.2999 61.6L71.7 62.6ZM71.9 64L43.2 76.5L71.5 63.1L71.9 64Z" fill="#94989B"/>
<path d="M33.7 79.2C30.2 71.9 39.2 70.6 39.2 70.6L16.2 34.7C16.2 34.7 11 34.6 11 40C11 42.2 12 43.9 12 43.9L33.7 79.2Z" fill="#699635"/>
</svg>
