<svg width="187" height="78" viewBox="0 0 187 78" fill="none" xmlns="http://www.w3.org/2000/svg">
<rect y="0.361938" width="77" height="77" rx="16" fill="#FF630B"/>
<path d="M5.51077 39.4274C5.51077 36.1512 6.21957 33.2372 7.63717 30.6856C9.05477 28.1024 11.0237 26.102 13.5438 24.6844C16.0955 23.2353 18.978 22.5107 22.1912 22.5107C26.1289 22.5107 29.4997 23.5503 32.3034 25.6295C35.1071 27.7086 35.9458 24.0662 40.3758 22.8888L43.12 27.4141L44.5246 28.8442V30.4875C42.1496 30.4875 27.4363 31.6936 26.2077 30.9691C25.0106 30.2445 23.6403 29.8823 22.0967 29.8823C19.608 29.8823 17.5919 30.7486 16.0482 32.4812C14.5046 34.2138 13.7328 36.5292 13.7328 39.4274C13.7328 42.3256 14.5046 44.641 16.0482 46.3736C17.5919 48.1063 19.608 48.9726 22.0967 48.9726C23.6403 48.9726 25.0106 48.6103 26.2077 47.8857C27.4363 47.1612 28.3814 46.1059 29.0429 44.7198H34.4115H51.5647C51.7231 54.9851 37.4485 57.554 33.4847 52.615C30.681 54.6626 26.1289 56.2968 22.1912 56.2968C18.978 56.2968 16.0955 55.588 13.5438 54.1704C11.0237 52.7213 9.05477 50.7209 7.63717 48.1693C6.21957 45.6176 5.51077 42.7036 5.51077 39.4274Z" fill="white"/>
<path d="M71.3213 22.8888L59.8387 45.0978V56.0606H51.7584L51.4142 45.0978C51.4142 45.0978 47.5228 30.9313 45.112 30.6856C42.7012 30.4398 40.3758 22.8888 40.3758 22.8888H49.443L55.8695 36.7812L62.2486 22.8888H71.3213Z" fill="white"/>
<path d="M88.12 38.6619C88.12 36.4646 88.6107 34.5019 89.592 32.7739C90.5947 31.0246 91.9493 29.6699 93.656 28.7099C95.384 27.7286 97.3147 27.2379 99.448 27.2379C101.944 27.2379 104.131 27.8779 106.008 29.1579C107.885 30.4379 109.197 32.2086 109.944 34.4699H104.792C104.28 33.4033 103.555 32.6033 102.616 32.0699C101.699 31.5366 100.632 31.2699 99.416 31.2699C98.1147 31.2699 96.952 31.5793 95.928 32.1979C94.9253 32.7953 94.136 33.6486 93.56 34.7579C93.0053 35.8673 92.728 37.1686 92.728 38.6619C92.728 40.1339 93.0053 41.4353 93.56 42.5659C94.136 43.6753 94.9253 44.5393 95.928 45.1579C96.952 45.7553 98.1147 46.0539 99.416 46.0539C100.632 46.0539 101.699 45.7873 102.616 45.2539C103.555 44.6993 104.28 43.8886 104.792 42.8219H109.944C109.197 45.1046 107.885 46.8859 106.008 48.1659C104.152 49.4246 101.965 50.0539 99.448 50.0539C97.3147 50.0539 95.384 49.5739 93.656 48.6139C91.9493 47.6326 90.5947 46.2779 89.592 44.5499C88.6107 42.8219 88.12 40.8593 88.12 38.6619ZM123.755 31.8779C125.099 31.8779 126.293 32.1766 127.339 32.7739C128.384 33.3499 129.195 34.2139 129.771 35.3659C130.368 36.4966 130.667 37.8619 130.667 39.4619V49.8619H126.187V40.0699C126.187 38.6619 125.835 37.5846 125.131 36.8379C124.427 36.0699 123.467 35.6859 122.251 35.6859C121.013 35.6859 120.032 36.0699 119.307 36.8379C118.603 37.5846 118.251 38.6619 118.251 40.0699V49.8619H113.771V26.1819H118.251V34.3419C118.827 33.5739 119.595 32.9766 120.555 32.5499C121.515 32.1019 122.581 31.8779 123.755 31.8779ZM151.887 32.1339L140.911 58.2459H136.143L139.983 49.4139L132.879 32.1339H137.903L142.479 44.5179L147.119 32.1339H151.887ZM158.782 34.8859C159.358 33.9473 160.104 33.2113 161.022 32.6779C161.96 32.1446 163.027 31.8779 164.222 31.8779V36.5819H163.038C161.63 36.5819 160.563 36.9126 159.838 37.5739C159.134 38.2353 158.782 39.3873 158.782 41.0299V49.8619H154.302V32.1339H158.782V34.8859ZM166.087 40.9339C166.087 39.1419 166.439 37.5526 167.143 36.1659C167.869 34.7793 168.839 33.7126 170.055 32.9659C171.293 32.2193 172.669 31.8459 174.183 31.8459C175.506 31.8459 176.658 32.1126 177.639 32.6459C178.642 33.1793 179.442 33.8513 180.039 34.6619V32.1339H184.551V49.8619H180.039V47.2699C179.463 48.1019 178.663 48.7953 177.639 49.3499C176.637 49.8833 175.474 50.1499 174.151 50.1499C172.658 50.1499 171.293 49.7659 170.055 48.9979C168.839 48.2299 167.869 47.1526 167.143 45.7659C166.439 44.3579 166.087 42.7473 166.087 40.9339ZM180.039 40.9979C180.039 39.9099 179.826 38.9819 179.399 38.2139C178.973 37.4246 178.397 36.8273 177.671 36.4219C176.946 35.9953 176.167 35.7819 175.335 35.7819C174.503 35.7819 173.735 35.9846 173.031 36.3899C172.327 36.7953 171.751 37.3926 171.303 38.1819C170.877 38.9499 170.663 39.8673 170.663 40.9339C170.663 42.0006 170.877 42.9393 171.303 43.7499C171.751 44.5393 172.327 45.1473 173.031 45.5739C173.757 46.0006 174.525 46.2139 175.335 46.2139C176.167 46.2139 176.946 46.0113 177.671 45.6059C178.397 45.1793 178.973 44.5819 179.399 43.8139C179.826 43.0246 180.039 42.0859 180.039 40.9979Z" fill="#FF630B"/>
</svg>
