<svg width="201" height="105" viewBox="0 0 201 105" fill="none" xmlns="http://www.w3.org/2000/svg">
<path d="M2.47131 53.0552C2.47131 43.2664 4.5891 34.5599 8.82467 26.9359C13.0602 19.2177 18.943 13.2409 26.4729 9.00529C34.0969 4.67559 42.7093 2.51074 52.3099 2.51074C64.0754 2.51074 74.1466 5.61683 82.5236 11.829C90.9007 18.0412 93.4067 7.15809 106.643 3.64023L114.842 17.1612L119.039 21.4343V26.344C111.943 26.344 67.9815 29.9478 64.3107 27.783C60.734 25.6181 56.6396 24.5357 52.0275 24.5357C44.5917 24.5357 38.5678 27.1241 33.9557 32.3009C29.3437 37.4777 27.0376 44.3959 27.0376 53.0552C27.0376 61.7146 29.3437 68.6327 33.9557 73.8096C38.5678 78.9864 44.5917 81.5748 52.0275 81.5748C56.6396 81.5748 60.734 80.4923 64.3107 78.3275C67.9815 76.1627 70.8052 73.0095 72.7818 68.868H88.8224H140.074C140.547 99.5393 97.8966 107.215 86.0533 92.4578C77.6763 98.5759 64.0754 103.459 52.3099 103.459C42.7093 103.459 34.0969 101.341 26.4729 97.1052C18.943 92.7755 13.0602 86.7986 8.82467 79.1746C4.5891 71.5506 2.47131 62.8441 2.47131 53.0552Z" fill="white"/>
<path d="M199.103 3.64023L164.795 69.9975V102.753H140.652L139.624 69.9975C139.624 69.9975 127.997 27.67 120.794 26.9359C113.591 26.2017 106.643 3.64023 106.643 3.64023H133.734L152.936 45.1488L171.996 3.64023H199.103Z" fill="white"/>
</svg>
